<svg width="32" height="32" viewBox="0 0 32 32" fill="none" xmlns="http://www.w3.org/2000/svg">
<path d="M29.5378 8.23939C29.521 7.37544 29.5049 6.55928 29.5049 5.76969C29.5049 5.15111 28.9908 4.64962 28.3563 4.64962C23.4442 4.64962 19.7042 3.27296 16.5867 0.31715C16.1408 -0.105791 15.4311 -0.105642 14.9853 0.31715C11.8682 3.27296 8.12878 4.64962 3.21693 4.64962C2.58259 4.64962 2.06833 5.15111 2.06833 5.76969C2.06833 6.55942 2.0524 7.37589 2.0354 8.23999C1.87797 16.2801 1.66234 27.2913 15.4098 31.9382C15.5317 31.9794 15.6588 32 15.7859 32C15.913 32 16.0403 31.9794 16.1621 31.9382C29.9106 27.2912 29.6953 16.2796 29.5378 8.23939Z" fill="#989898"/>
<path d="M27.1819 9.58269C27.168 8.86828 27.1547 8.1934 27.1547 7.54049C27.1547 7.02899 26.7313 6.6143 26.2087 6.6143C22.1625 6.6143 19.0819 5.47594 16.5141 3.03178C16.1467 2.68205 15.5622 2.68218 15.195 3.03178C12.6274 5.47594 9.54728 6.6143 5.5014 6.6143C4.97891 6.6143 4.55531 7.02899 4.55531 7.54049C4.55531 8.19352 4.54219 8.86865 4.52819 9.58318C4.39851 16.2315 4.22089 25.3367 15.5446 29.1792C15.6451 29.2133 15.7498 29.2303 15.8545 29.2303C15.9592 29.2303 16.064 29.2133 16.1643 29.1792C27.4889 25.3366 27.3115 16.2311 27.1819 9.58269Z" fill="#222222"/>
<path d="M14.0977 8.50977H10.3477V23.5098H14.0977V8.50977Z" fill="#989898"/>
<path d="M21.3477 8.50977H17.5977V23.5098H21.3477V8.50977Z" fill="#989898"/>
</svg>
