<svg width="32" height="32" viewBox="0 0 32 32" fill="none" xmlns="http://www.w3.org/2000/svg">
<path d="M29.5379 8.23939C29.5211 7.37544 29.505 6.55928 29.505 5.76969C29.505 5.15111 28.9909 4.64962 28.3564 4.64962C23.4442 4.64962 19.7042 3.27296 16.5868 0.31715C16.1408 -0.105791 15.4311 -0.105642 14.9853 0.31715C11.8682 3.27296 8.1288 4.64962 3.21693 4.64962C2.5826 4.64962 2.06833 5.15111 2.06833 5.76969C2.06833 6.55942 2.0524 7.37589 2.0354 8.23999C1.87797 16.2801 1.66234 27.2913 15.4099 31.9382C15.5318 31.9794 15.6589 32 15.786 32C15.9131 32 16.0404 31.9794 16.1621 31.9382C29.9107 27.2912 29.6954 16.2796 29.5379 8.23939Z" fill="#38AB43"/>
<path d="M27.182 9.58271C27.1681 8.8683 27.1549 8.19341 27.1549 7.54051C27.1549 7.029 26.7314 6.61431 26.2088 6.61431C22.1626 6.61431 19.082 5.47595 16.5141 3.03178C16.1468 2.68205 15.5622 2.68218 15.195 3.03178C12.6274 5.47595 9.54731 6.61431 5.50141 6.61431C4.97891 6.61431 4.55531 7.029 4.55531 7.54051C4.55531 8.19354 4.54219 8.86867 4.52819 9.5832C4.39851 16.2316 4.22089 25.3368 15.5447 29.1793C15.6451 29.2134 15.7498 29.2304 15.8545 29.2304C15.9592 29.2304 16.0641 29.2134 16.1643 29.1793C27.489 25.3367 27.3117 16.2312 27.182 9.58271Z" fill="#222222"/>
<path fill-rule="evenodd" clip-rule="evenodd" d="M7.97754 14.1877L7.97771 14.188L13.2756 10.42V12.4285L9.3899 15.1922L15.2173 19.337V22.4002L7.97754 17.2508V14.1877ZM23.6921 14.1877L23.6917 14.188L18.394 10.42V12.4285L22.2798 15.1922L16.4522 19.337V22.4002L23.6921 17.2508V14.1877ZM16.9446 9.58594H14.7252V15.0649L13.4715 14.173L12.0423 15.1895L15.8348 17.887L19.6275 15.1895L18.1984 14.173L16.9446 15.0649V9.58594Z" fill="#FF872C"/>
</svg>
