<svg width="32" height="32" viewBox="0 0 32 32" fill="none" xmlns="http://www.w3.org/2000/svg">
<path d="M29.5379 8.23939C29.5211 7.37544 29.505 6.55928 29.505 5.76969C29.505 5.15111 28.9909 4.64962 28.3564 4.64962C23.4442 4.64962 19.7042 3.27296 16.5868 0.31715C16.1408 -0.105791 15.4311 -0.105642 14.9853 0.31715C11.8682 3.27296 8.1288 4.64962 3.21693 4.64962C2.5826 4.64962 2.06833 5.15111 2.06833 5.76969C2.06833 6.55942 2.0524 7.37589 2.0354 8.23999C1.87797 16.2801 1.66234 27.2913 15.4099 31.9382C15.5318 31.9794 15.6589 32 15.786 32C15.9131 32 16.0404 31.9794 16.1621 31.9382C29.9107 27.2912 29.6954 16.2796 29.5379 8.23939Z" fill="#FF1D1D"/>
<path d="M27.182 9.58271C27.1681 8.8683 27.1549 8.19341 27.1549 7.54051C27.1549 7.029 26.7314 6.61431 26.2088 6.61431C22.1626 6.61431 19.082 5.47595 16.5141 3.03178C16.1468 2.68205 15.5622 2.68218 15.195 3.03178C12.6274 5.47595 9.54731 6.61431 5.50141 6.61431C4.97891 6.61431 4.55531 7.029 4.55531 7.54051C4.55531 8.19354 4.54219 8.86867 4.52819 9.5832C4.39851 16.2316 4.22089 25.3368 15.5447 29.1793C15.6451 29.2134 15.7498 29.2304 15.8545 29.2304C15.9592 29.2304 16.0641 29.2134 16.1643 29.1793C27.489 25.3367 27.3117 16.2312 27.182 9.58271Z" fill="#222222"/>
<path d="M13.7958 19.8644C13.8032 18.7585 13.9563 17.9489 14.2552 17.4355C14.5541 16.922 15.15 16.298 16.043 15.5634C16.567 15.1053 16.9858 14.6116 17.2995 14.0824C17.6131 13.5531 17.77 12.9607 17.77 12.3051C17.77 11.5784 17.591 11.0097 17.2331 10.5989C16.8751 10.1882 16.3641 9.98282 15.6998 9.98282C15.1537 9.98282 14.6906 10.1566 14.3105 10.5042C13.9305 10.8517 13.7367 11.3612 13.7294 12.0326H10.5854L10.5633 11.9615C10.5411 10.4449 11.0079 9.28377 11.9636 8.47806C12.9194 7.67238 14.1648 7.26953 15.6998 7.26953C17.353 7.26953 18.65 7.71778 19.591 8.61431C20.532 9.51087 21.0024 10.7293 21.0024 12.2696C21.0024 13.2727 20.7275 14.2008 20.1777 15.0539C19.6279 15.907 18.9397 16.6219 18.1131 17.1985C17.663 17.5697 17.3678 17.943 17.2275 18.3182C17.0873 18.6934 17.0172 19.2088 17.0172 19.8644H13.7958ZM17.0393 24.7696H13.7847V21.8075H17.0393V24.7696Z" fill="#FF1D1D"/>
</svg>
