<svg xmlns="http://www.w3.org/2000/svg" xmlns:xlink="http://www.w3.org/1999/xlink" width="512pt" height="512pt" viewBox="0 0 512 512"><defs><clipPath id="a"><path d="M0 0h512v512H0z"/></clipPath><clipPath id="e"><path d="M35 0h442v512H35zm0 0"/></clipPath><clipPath id="f"><path d="M475.6 131.8c-.3-13.8-.5-26.9-.5-39.5 0-9.9-8.2-18-18.4-18-78.6 0-138.4-22-188.3-69.2a18.7 18.7 0 00-25.6 0C192.8 52.4 133 74.4 54.5 74.4c-10.2 0-18.4 8-18.4 18 0 12.5-.3 25.6-.5 39.4-2.6 128.7-6 304.9 214 379.2a18.8 18.8 0 0012 0c220-74.3 216.5-250.5 214-379.2zm0 0"/></clipPath><clipPath id="d"><path d="M0 0h512v512H0z"/></clipPath><g id="c" clip-path="url(#a)"><path d="M0 0h512v512H0z"/></g><g id="g" clip-path="url(#d)"><path d="M475.6 131.8c-.3-13.8-.5-26.9-.5-39.5 0-9.9-8.2-18-18.4-18-78.6 0-138.4-22-188.3-69.2a18.7 18.7 0 00-25.6 0C192.8 52.4 133 74.4 54.5 74.4c-10.2 0-18.4 8-18.4 18 0 12.5-.3 25.6-.5 39.4-2.6 128.7-6 304.9 214 379.2a18.8 18.8 0 0012 0c220-74.3 216.5-250.5 214-379.2zm0 0" fill="#fff"/><g clip-path="url(#e)"><g clip-path="url(#f)" clip-rule="evenodd"><path d="M475.6 131.8l-12 .3zM268.4 5.1l-8.3 8.7zm-25.6 0l8.2 8.7zM35.6 131.8l-12-.2zm214 379.2l3.8-11.4zm12 0l-3.9-11.4zM464 168.5l.1 12h24v-12zm3 166.7L471 324l-22.8-7.7-3.8 11.4zm-53.5 55l-6.7 10 19.8 13.4 6.8-9.9zM300.6 509l11-4.8-9.5-22-11 4.7zm-43.2-9.2L246 503l6.5 23.1 11.6-3.3zm-.3 24.3l12-.6-1.2-24-12 .6zm-1.9-24l-12-.6-1.2 24 12 .6zm-8 22.8l11.5 3.3 6.6-23-11.6-3.4zm-27.2-36l-11-4.7-9.5 22 11 4.8zm-142.3-83l6.8 9.8 19.8-13.4-6.7-10zm-11-76.2L63 316.2l-22.7 7.7 3.8 11.3zM23 168.4v12l24 .2v-12zM47.7 126l.2-12-24-.5-.2 12zM24 98.3l-.1 12 24 .2v-12zM48.3 91l3-11.6-23.3-6L25 85zm-1-27.7L35.8 66l5.5 23.3L53 86.6zm39.8 21.9l12-1-2-24-12 1zm124.3-69.3l-9.7 7.2L216 42.3l9.7-7.2zm40.8-3l10.4-6-12-20.7-10.4 6zM271-7.8l-10.4-6-12 20.8 10.4 6zm14.6 43l9.6 7.2L309.4 23l-9.6-7.2zm140.5 26l-12-1-2 24 12 1zm32.3 25.5l11.7 2.7 5.5-23.3-11.7-2.8zm27.9-1.6l-3-11.6-23.3 6 3 11.5zM463 98.5v12l24-.2v-12zm24.4 27l-.2-12-24 .5.2 12zm-23.9 6.6c.2 11.8.5 24 .5 36.4h24c0-12.7-.3-25-.5-37zm-19.2 195.5a256.8 256.8 0 01-30.8 62.6l19.9 13.5a280.7 280.7 0 0033.6-68.5zM291 486.8a427 427 0 01-33.4 12.8l7.7 22.8c12.4-4.2 24.2-8.7 35.3-13.5zm-33.4 12.8l-.3.1 6.6 23.1 1.4-.4zm-1.8.4h-.3v24h1.5zm-.3 0h-.4l-1.2 24h1.6zm-1.9-.3h-.3l-7.7 22.7 1.5.4zm-.3 0c-11.8-4-22.9-8.3-33.4-12.9l-9.5 22c11 4.9 22.8 9.4 35.2 13.6zM97.6 390.1a256.7 256.7 0 01-30.8-62.6L44 335.2c8 23.6 18.9 46.7 33.7 68.5zM47 168.6c0-12.5.3-24.7.6-36.5l-24-.5c-.3 11.8-.5 24.2-.6 36.8zm.6-36.5V126l-24-.5v6.1zm.5-33.6v-6.2H24v6zm0-6.2c0-.5 0-1 .2-1.4L25 85c-.6 2.4-1 4.8-1 7.3zm4.8-5.7a7 7 0 011.6-.2v-24c-2.5 0-4.8.3-7.1.8zm1.6-.2c11.2 0 22-.4 32.6-1.3l-2-24c-9.8.9-20 1.3-30.6 1.3zM225.7 35A274 274 0 00251 13.8L234.5-3.6a250.7 250.7 0 01-23.1 19.4zM251 13.8l1.2-1-12-20.7c-2 1.2-4 2.6-5.7 4.3zm8-1l1.1 1 16.5-17.4A30.3 30.3 0 00271-8zm1.1 1c8.2 7.7 16.6 14.8 25.4 21.3l14.3-19.3c-8-5.9-15.7-12.3-23.2-19.4zm164 71.3c10.5.9 21.4 1.3 32.6 1.3v-24c-10.6 0-20.8-.4-30.7-1.2zm32.6 1.3c.6 0 1 0 1.6.2l5.5-23.4a31 31 0 00-7.1-.8zm6.2 4.5l.2 1.4h24c0-2.5-.3-5-1-7.3zm.2 1.4v6.2l24-.2v-6zm.4 33.7l.1 6 24-.4-.1-6zm12.1 5.8l-24 .5zM268.4 5.1l-16.5 17.4zm-25.6 0l16.5 17.4zM35.6 131.8l-24-.4zm214 379.2l7.6-22.7zm12 0l-7.7-22.7zM452 168.6l.2 24 48-.3-.2-24zm26.4 170.5l7.7-22.8-45.5-15.3-7.7 22.7zm-74.8 44.4l-13.5 19.8 39.7 27 13.5-19.8zm-98.3 136.4l22-9.6-19-44-22 9.5zm-51.2-31.7l-23.1 6.5 13 46.2 23.1-6.5zm3.5 47.7l24-1.2-2.4-47.9-24 1.2zm-1.9-47.9l-24-1.2-2.3 48 24 1.1zM244 534.4l23.1 6.5 13-46.2-23-6.5zm-19-58.6l-22.1-9.5-19.1 44 22 9.6zM67.7 410.5l13.5 19.8 39.7-27-13.5-19.8zm10.4-86.8L70.5 301 25 316.3l7.7 22.8zM11 168.3l-.1 24 48 .3.1-24zm48.7-42l.4-24-48-1-.4 24zM12 98.2l-.2 24 48 .2.2-24zm47.8-4.4l6-23.2-46.6-12-6 23.3zM44.6 51.5l-23.4 5.6 11 46.7 23.4-5.5zM88.1 97l24-2-4-47.8-24 2zM204.2 6.2L185 20.5 213.5 59l19.3-14.3zm54 17l20.8-12-24-41.5-20.7 12zM277-18.2l-20.8-12-24 41.6 20.8 12zm1.4 63L297.6 59l28.6-38.5-19.3-14.3zM427 49.3l-23.9-2-4 47.8 24 2zm28.5 49l23.4 5.6 11-46.7-23.3-5.6zM497.8 82l-6-23.2-46.5 11.9 6 23.2zM451 98.5l.1 24 48-.2-.1-24zm48.4 26.8l-.5-24-48 1 .5 24zm-47.9 7c.2 11.9.5 24 .5 36.3l48-.3c0-12.7-.3-25.1-.5-37zM433 323.7a245 245 0 01-29.3 59.8l39.7 27c15.5-22.9 26.8-47 35-71.4zM286.3 475.8c-10.1 4.4-20.9 8.6-32.4 12.5l15.4 45.4c12.7-4.2 24.7-8.9 36.1-13.8zM254 488.3l.3-.1 13 46.2 2-.7zm1.4-.3h.3v48h2.1zm.3 0h.2l-2.4 48h2.2zm1.4.2h.2L242 533.8l2 .7zm.2 0c-11.4-3.8-22.2-8-32.4-12.4l-19 44c11.3 5 23.4 9.7 36 14zM107.5 383.6a244.7 244.7 0 01-29.3-59.8l-45.5 15.4a292.8 292.8 0 0035 71.4zM59 168.6c0-12.3.3-24.4.6-36.3l-48-1c-.3 11.9-.5 24.3-.6 37zm.6-36.3v-6l-48-1v6zm.5-33.8v-6.2H12v6zm0-6.2c0 .5 0 1-.2 1.6L13.4 82c-.9 3.4-1.3 6.8-1.3 10.3zm-4.5 6h-1.1v-48a43 43 0 00-9.9 1.2zm-1.1 0C66 98.4 77.2 98 88 97l-4-47.8c-9.5.8-19.3 1.2-29.6 1.2zm178.3-53.5c9.2-6.8 18-14.3 26.5-22.3l-33-34.8c-7.2 6.7-14.5 13-22 18.5zm26.5-22.3l-1 .8-24-41.6a42.5 42.5 0 00-8 6zm-6.4.8l-1-.8 33-34.8a42.5 42.5 0 00-8-6zm-1-.8c8.5 8 17.3 15.5 26.4 22.3L307 6.2a237.8 237.8 0 01-22-18.5zM423 97c11 1 22.2 1.4 33.7 1.4v-48c-10.3 0-20.2-.4-29.7-1.2zm33.7 1.4a5 5 0 01-1.2-.1l11-46.8a43 43 0 00-9.8-1.1zm-5.4-4.5c-.2-.5-.2-1-.2-1.6h48c0-3.5-.5-7-1.3-10.3zm-.2-1.6v6.2l48-.2v-6zm.4 34l.1 6 48-1-.1-6zm0 0" fill="#38ab43" fill-opacity=".8"/></g></g><path d="M137 228.6l80-57V202l-58.6 41.8 88 62.6v46.3L137 275zm237.6 0l-80.1-57V202l58.7 41.8-88 62.6v46.3L374.5 275zm-102-69.6H239v82.8l-19-13.5-21.6 15.4 57.4 40.8 57.3-40.8-21.6-15.4-19 13.5zm0 0" fill-rule="evenodd" fill="#ff872c" fill-opacity=".8"/></g><filter id="b" filterUnits="objectBoundingBox" x="0%" y="0%" width="100%" height="100%"><feColorMatrix in="SourceGraphic" values="0 0 0 0 1 0 0 0 0 1 0 0 0 0 1 0 0 0 1 0"/></filter><mask id="h"><g filter="url(#b)"><use xlink:href="#c"/></g></mask></defs><use xlink:href="#g" mask="url(#h)"/></svg>