<svg width="32" height="32" viewBox="0 0 32 32" fill="none" xmlns="http://www.w3.org/2000/svg">
<path d="M29.738 8.23939C29.7212 7.37544 29.7051 6.55928 29.7051 5.76969C29.7051 5.15111 29.191 4.64962 28.5565 4.64962C23.6444 4.64962 19.9044 3.27296 16.7869 0.31715C16.341 -0.105791 15.6313 -0.105642 15.1855 0.31715C12.0683 3.27296 8.32898 4.64962 3.41712 4.64962C2.78279 4.64962 2.26853 5.15111 2.26853 5.76969C2.26853 6.55942 2.2526 7.37589 2.2356 8.23999C2.07816 16.2801 1.86254 27.2913 15.61 31.9382C15.7319 31.9794 15.859 32 15.9861 32C16.1132 32 16.2405 31.9794 16.3623 31.9382C30.1108 27.2912 29.8955 16.2796 29.738 8.23939Z" fill="#EEF21D"/>
<path d="M27.3831 9.58267C27.3692 8.86827 27.356 8.19339 27.356 7.54048C27.356 7.02898 26.9325 6.61429 26.4099 6.61429C22.3637 6.61429 19.2831 5.47594 16.7153 3.03178C16.3479 2.68205 15.7634 2.68218 15.3962 3.03178C12.8286 5.47594 9.74847 6.61429 5.70258 6.61429C5.18008 6.61429 4.75648 7.02898 4.75648 7.54048C4.75648 8.19351 4.74336 8.86864 4.72936 9.58317C4.59968 16.2315 4.42207 25.3367 15.7458 29.1792C15.8463 29.2132 15.951 29.2303 16.0557 29.2303C16.1604 29.2303 16.2652 29.2132 16.3655 29.1792C27.6901 25.3366 27.5128 16.2311 27.3831 9.58267Z" fill="#222222"/>
<path d="M16.0752 7.59416V4.4375L11.8564 8.64636L16.0752 12.8552V9.69857C19.5557 9.69857 22.4033 12.5395 22.4033 16.0118C22.4033 17.0641 22.0869 18.1163 21.665 18.958L23.2471 20.5364C23.9853 19.1685 24.5127 17.6954 24.5127 16.0118C24.5127 11.3821 20.7158 7.59416 16.0752 7.59416ZM16.0752 22.3251C12.5947 22.3251 9.74707 19.4841 9.74707 16.0118C9.74707 14.9596 10.0635 13.9074 10.4853 13.0656L8.90333 11.4873C8.16502 12.8552 7.6377 14.3283 7.6377 16.0118C7.6377 20.6416 11.4346 24.4295 16.0752 24.4295V27.5862L20.2939 23.3773L16.0752 19.1685V22.3251Z" fill="#EEF21D"/>
</svg>
